HIERARCHY
ROOT Hips
{
	OFFSET 0.00000 0.00000 0.00000
	CHANNELS 6 Xposition Yposition Zposition Zrotation Yrotation Xrotation 
	JOINT RightUpLegDummy
	{
		OFFSET 0 0 0
		CHANNELS 3 Zrotation Yrotation Xrotation
		JOINT RightUpLeg
		{
			OFFSET -3.52197 -3.41223 0.04002
			CHANNELS 3 Zrotation Yrotation Xrotation
			JOINT RightLeg
			{
				OFFSET 0.00006 -17.42390 1.60435
				CHANNELS 3 Zrotation Yrotation Xrotation
				JOINT RightFoot
				{
					OFFSET 0.06153 -16.50078 -1.63901
					CHANNELS 3 Zrotation Yrotation Xrotation
					JOINT RightToes
					{
						OFFSET 0.00298 -1.73825 3.34613
						CHANNELS 3 Zrotation Yrotation Xrotation
						End Site
						{
							OFFSET 0.00480 -0.05416 3.85043
						}
					}
				}
			}
		}
	}
	JOINT SpineDummy
	{
		OFFSET 0 0 0
		CHANNELS 3 Zrotation Yrotation Xrotation
		JOINT Spine
		{
			OFFSET 0.00000 4.68130 0.00000
			CHANNELS 3 Zrotation Yrotation Xrotation
			JOINT Spine1
			{
				OFFSET -0.00000 10.10138 0.05002
				CHANNELS 3 Zrotation Yrotation Xrotation
				JOINT HEadDummy
				{
					OFFSET 0 0 0
					CHANNELS 3 Zrotation Yrotation Xrotation
					JOINT Head
					{
						OFFSET -0.00000 3.43865 0.00438
						CHANNELS 3 Zrotation Yrotation Xrotation
						End Site
						{
							OFFSET -0.11417 5.02924 0.98962
						}
					}
				}
				JOINT LeftShoulder1Dummy
				{
					OFFSET 0 0 0
					CHANNELS 3 Zrotation Yrotation Xrotation
					JOINT LeftShoulder1
					{
						OFFSET 3.53937 -0.14262 -0.08662
						CHANNELS 3 Zrotation Yrotation Xrotation
						JOINT LeftArm
						{
							OFFSET 4.04833 -0.00133 0.12681
							CHANNELS 3 Zrotation Yrotation Xrotation
							JOINT LeftForeArm
							{
								OFFSET 10.33880 -0.01036 -0.55515
								CHANNELS 3 Zrotation Yrotation Xrotation
								JOINT LeftHand
								{
									OFFSET 8.69677 0.07543 0.40060
									CHANNELS 3 Zrotation Yrotation Xrotation
									End Site
									{
										OFFSET 5.28377 -0.21905 0.59205
									}
								}
							}
						}
					}
				}
				JOINT RightShoulderDummy
				{
					OFFSET 0 0 0
					CHANNELS 3 Zrotation Yrotation Xrotation
					JOINT RightShoulder
					{
						OFFSET -3.53937 -0.14262 -0.08660
						CHANNELS 3 Zrotation Yrotation Xrotation
						JOINT RightArm
						{
							OFFSET -4.04833 -0.00133 0.12683
							CHANNELS 3 Zrotation Yrotation Xrotation
							JOINT RightForeArm
							{
								OFFSET -10.37987 -0.01039 -0.55511
								CHANNELS 3 Zrotation Yrotation Xrotation
								JOINT RightHand
								{
									OFFSET -8.67398 0.07538 0.40058
									CHANNELS 3 Zrotation Yrotation Xrotation
									End Site
									{
										OFFSET -5.24810 -0.21916 0.59204
									}
								}
							}
						}
					}
				}
			}
		}
	}
	JOINT LeftUpLegDummy
	{
		OFFSET 0 0 0
		CHANNELS 3 Zrotation Yrotation Xrotation
		JOINT LeftUpLeg
		{
			OFFSET 3.52197 -3.41223 0.04002
			CHANNELS 3 Zrotation Yrotation Xrotation
			JOINT LeftLeg
			{
				OFFSET -0.00012 -17.42399 1.60337
				CHANNELS 3 Zrotation Yrotation Xrotation
				JOINT LeftFoot
				{
					OFFSET -0.09972 -16.50070 -1.63802
					CHANNELS 3 Zrotation Yrotation Xrotation
					JOINT LeftToes
					{
						OFFSET -0.01575 -1.73823 3.34611
						CHANNELS 3 Zrotation Yrotation Xrotation
						End Site
						{
							OFFSET 0.03150 -0.01868 3.85031
						}
					}
				}
			}
		}
	}
}
MOTION
Frames: 14
Frame Time: 0.033333
45.7189 39.8186 80.6519 -179.0160 -1.5919 178.1840 0.0000 0.0000 0.0000 1.5982 -1.4651 1.0751 -2.3823 -9.9457 3.9784 -0.7103 0.0264 -3.1929 0.0000 -0.0000 -0.0000 0.0000 0.0000 0.0000 -1.2299 -0.5209 0.9088 4.2641 -1.3136 0.7903 -0.0000 0.0000 -0.0000 2.0860 5.8589 0.9112 -0.0000 0.0000 -0.0000 -33.7668 -2.2472 2.2888 -44.7112 -13.1574 -17.1869 -10.8933 5.1251 48.0119 14.8910 -4.8310 -1.2775 -0.0000 0.0000 -0.0000 34.1261 5.0416 3.4299 42.2630 2.9085 -17.0162 10.9081 0.3338 22.4155 -12.6656 0.6181 -0.6498 0.0000 0.0000 0.0000 1.4023 1.9836 0.1618 -0.9020 -2.4135 5.4397 3.0903 -0.1407 -4.3753 0.0000 0.0000 -0.0000
45.7180 39.8186 80.6471 -179.0140 -1.6029 178.1700 0.0000 0.0000 0.0000 1.5982 -1.4691 1.1014 -2.3810 -9.9456 3.9711 -0.7103 0.0264 -3.1929 0.0000 -0.0000 -0.0000 0.0000 0.0000 0.0000 -1.2001 -0.5083 0.8678 4.2259 -1.2943 0.7903 -0.0000 0.0000 -0.0000 2.0079 5.7810 0.8584 -0.0000 0.0000 -0.0000 -33.7757 -2.2762 2.3008 -44.6597 -13.1465 -17.2035 -10.8933 5.1252 47.9972 14.9247 -4.8074 -1.2756 -0.0000 0.0000 -0.0000 34.1633 5.0515 3.4371 42.2897 3.0743 -17.3193 10.7483 -0.0647 22.9293 -12.7073 0.5901 -0.6491 0.0000 0.0000 0.0000 1.4023 1.9881 0.1830 -0.9023 -2.4135 5.4397 3.0864 -0.1404 -4.3811 0.0000 0.0000 -0.0000
45.7104 39.8186 80.6371 -178.9980 -1.6306 178.1450 0.0000 0.0000 0.0000 1.5982 -1.4975 1.1728 -2.3509 -9.9437 3.9208 -0.7271 0.0274 -3.1930 0.0000 -0.0000 -0.0000 0.0000 0.0000 0.0000 -1.0516 -0.5080 0.8164 4.0242 -1.2611 0.7916 -0.0000 0.0000 -0.0000 1.9174 5.7738 0.7496 -0.0000 0.0000 -0.0000 -33.6399 -2.2773 2.2933 -44.7168 -13.1186 -17.2149 -10.8740 5.1265 47.9742 15.0836 -4.5821 -1.2622 -0.0000 0.0000 -0.0000 34.3733 5.0863 3.4693 42.3045 3.4073 -18.4145 10.1971 -0.8839 24.2162 -12.7870 0.6643 -0.6609 0.0000 0.0000 0.0000 1.4023 1.9715 0.2263 -0.8774 -2.4120 5.4350 3.0715 -0.1394 -4.3981 0.0000 0.0000 -0.0000
45.6993 39.8186 80.6261 -178.9660 -1.6382 178.1170 0.0000 0.0000 0.0000 1.5982 -1.5277 1.2530 -2.3063 -9.9323 3.8605 -0.7625 0.0297 -3.1992 0.0000 -0.0000 -0.0000 0.0000 0.0000 0.0000 -0.8240 -0.5245 0.7391 3.7555 -1.2377 0.8426 -0.0000 0.0000 -0.0000 1.6919 5.8879 0.5460 -0.0000 0.0000 -0.0000 -33.4815 -2.2505 2.2735 -44.8001 -13.0785 -17.2380 -10.8353 5.1290 47.9033 15.2183 -4.2381 -1.2313 -0.0000 0.0000 -0.0000 34.5906 5.1216 3.5026 42.2568 3.6587 -19.1251 9.8440 -1.3670 24.9470 -12.7989 0.8040 -0.6759 0.0000 0.0000 0.0000 1.4023 1.9682 0.2767 -0.8618 -2.4162 5.4307 3.0705 -0.1394 -4.4233 0.0000 0.0000 -0.0000
45.6902 39.8174 80.6202 -178.9480 -1.6974 178.0860 0.0000 0.0000 0.0000 1.5922 -1.5524 1.2948 -2.2928 -9.9667 3.8775 -0.7961 0.0320 -3.2354 0.0000 -0.0000 -0.0000 0.0000 0.0000 0.0000 -0.6986 -0.5557 0.6535 3.6710 -1.2615 0.9176 -0.0000 0.0000 -0.0000 1.2816 5.9646 0.3073 -0.0000 0.0000 -0.0000 -33.5892 -2.2719 2.2883 -44.6534 -13.0253 -17.2788 -10.8216 5.1327 47.7785 15.2116 -3.9997 -1.2011 -0.0000 0.0000 -0.0000 34.5708 5.1210 3.5006 42.1892 3.6569 -18.4126 10.2161 -1.0487 24.0825 -12.6976 0.8070 -0.6708 0.0000 0.0000 0.0000 1.3932 1.9504 0.2886 -0.8508 -2.4560 5.4792 3.1167 -0.1424 -4.4576 0.0000 0.0000 -0.0000
45.7025 39.8116 80.6178 -179.0190 -1.5528 177.9410 0.0000 0.0000 0.0000 1.5598 -1.5414 1.3551 -2.3625 -9.8370 4.0681 -0.8298 0.0345 -3.3528 0.0000 -0.0000 -0.0000 0.0000 0.0000 0.0000 -0.9022 -0.4191 0.7457 3.9245 -1.1616 0.9130 -0.0000 0.0000 -0.0000 1.0383 5.8453 0.2773 -0.0000 0.0000 -0.0000 -33.9481 -2.3652 2.3465 -44.2962 -12.9689 -17.3148 -10.8511 5.1355 47.6682 15.2046 -3.9071 -1.1890 -0.0000 0.0000 -0.0000 34.4149 5.0954 3.4766 42.1280 3.3863 -17.0377 10.9248 -0.1362 22.3668 -12.5647 0.6772 -0.6505 0.0000 0.0000 0.0000 1.3257 1.9235 0.4344 -0.8105 -2.2811 5.5535 3.1773 -0.1462 -4.5241 0.0000 0.0000 -0.0000
45.7608 39.8006 80.6082 -179.2100 -0.5936 177.5540 0.0000 0.0000 0.0000 1.5609 -1.3850 1.5270 -2.5563 -9.0670 4.4479 -0.8864 0.0388 -3.5643 0.0000 -0.0000 -0.0000 0.0000 0.0000 0.0000 -1.5109 0.1766 1.1265 4.4941 -0.6328 0.8680 -0.0000 0.0000 -0.0000 1.2214 5.5689 0.5339 -0.0000 0.0000 -0.0000 -34.2939 -2.4632 2.4064 -43.9968 -12.9338 -17.3510 -10.8789 5.1372 47.5986 15.3548 -3.8224 -1.1906 -0.0000 0.0000 -0.0000 34.3811 5.0831 3.4687 42.0021 3.1229 -16.3232 11.2984 0.5415 21.2971 -12.4838 0.5841 -0.6369 0.0000 0.0000 0.0000 1.2923 2.0676 1.0147 -0.8073 -1.4645 5.5120 3.2153 -0.1487 -4.6485 0.0000 0.0000 -0.0000
45.7397 39.7945 80.6122 -179.2710 -0.5933 177.5340 0.0000 0.0000 0.0000 1.4313 -1.4871 1.4989 -2.5150 -8.9931 4.5476 -0.8866 0.0391 -3.6604 0.0000 -0.0000 -0.0000 0.0000 0.0000 0.0000 -1.6778 0.2320 1.1882 4.7432 -0.6146 0.7830 -0.0000 0.0000 -0.0000 1.4756 5.3686 0.7701 -0.0000 0.0000 -0.0000 -34.5898 -2.4911 2.4357 -43.8299 -12.8860 -17.4134 -10.8760 5.1390 47.5339 15.5497 -3.7243 -1.1939 -0.0000 0.0000 -0.0000 34.3790 5.0767 3.4660 41.8508 3.0892 -16.3758 11.2755 0.5312 21.3098 -12.4322 0.6181 -0.6378 0.0000 0.0000 0.0000 1.1246 1.9282 0.9270 -0.6905 -1.2926 5.7141 3.3643 -0.1583 -4.7352 0.0000 0.0000 -0.0000
45.6964 39.7951 80.6131 -179.4050 -0.6180 177.4380 0.0000 0.0000 0.0000 1.1529 -1.7147 1.5743 -2.4096 -8.8064 4.6264 -0.8846 0.0393 -3.7447 0.0000 -0.0000 -0.0000 0.0000 0.0000 0.0000 -1.8457 0.2437 1.4125 4.9248 -0.6263 0.5998 -0.0000 0.0000 -0.0000 1.4772 5.3297 0.7635 -0.0000 0.0000 -0.0000 -34.7900 -2.4781 2.4426 -43.8025 -12.8110 -17.5253 -10.8305 5.1377 47.5998 15.5948 -3.7514 -1.2009 -0.0000 0.0000 -0.0000 34.3425 5.0704 3.4593 41.7189 3.0507 -16.5962 11.1553 0.3045 21.7289 -12.7121 0.4718 -0.6361 0.0000 0.0000 0.0000 0.8437 1.7298 1.0700 -0.5607 -1.0956 5.6248 3.5022 -0.1671 -4.6866 0.0000 0.0000 -0.0000
45.6465 39.7961 80.6128 -179.5340 -0.7583 177.3130 0.0000 0.0000 0.0000 0.8506 -1.9757 1.7032 -2.2880 -8.6928 4.6848 -0.8578 0.0377 -3.8049 0.0000 -0.0000 -0.0000 0.0000 0.0000 0.0000 -1.9401 0.1955 1.7418 4.9779 -0.6742 0.2960 -0.0000 0.0000 -0.0000 1.4530 5.4073 0.7119 -0.0000 0.0000 -0.0000 -34.7693 -2.4343 2.4235 -43.9729 -12.7462 -17.6332 -10.7739 5.1310 47.8588 15.5117 -3.9306 -1.2170 -0.0000 0.0000 -0.0000 34.3193 5.0725 3.4590 41.7026 2.9073 -17.0210 10.9374 0.1565 22.2176 -13.6724 -0.2176 -0.6102 0.0000 0.0000 0.0000 0.5445 1.4961 1.2797 -0.4142 -0.9934 5.4446 3.5795 -0.1721 -4.5824 0.0000 0.0000 -0.0000
45.6082 39.7976 80.6118 -179.5700 -0.8672 177.2310 0.0000 0.0000 0.0000 0.6944 -2.1247 1.7928 -2.2036 -8.6496 4.7048 -0.8098 0.0347 -3.8269 0.0000 -0.0000 -0.0000 0.0000 0.0000 0.0000 -1.8576 0.1487 2.0068 4.8358 -0.6900 0.0003 -0.0000 0.0000 -0.0000 1.6856 5.5680 0.8393 -0.0000 0.0000 -0.0000 -34.5186 -2.3422 2.3711 -44.3180 -12.6947 -17.6410 -10.7644 5.1245 48.0880 15.4622 -4.0829 -1.2322 -0.0000 0.0000 -0.0000 34.3756 5.0870 3.4698 41.8618 2.8398 -18.1226 10.3851 -0.1413 23.4445 -13.3834 -0.0662 -0.6131 0.0000 0.0000 0.0000 0.4123 1.3987 1.3719 -0.3649 -0.9968 5.4131 3.6465 -0.1764 -4.5504 0.0000 0.0000 -0.0000
45.5772 39.7989 80.6108 -179.4980 -0.8602 177.2670 0.0000 0.0000 0.0000 0.7221 -2.1115 1.7831 -2.1821 -8.6403 4.6344 -0.7927 0.0334 -3.7779 0.0000 -0.0000 -0.0000 0.0000 0.0000 0.0000 -1.6176 0.1280 1.9684 4.5792 -0.6706 -0.0200 -0.0000 0.0000 -0.0000 1.8664 5.8365 0.8906 -0.0000 0.0000 -0.0000 -34.2816 -2.2543 2.3216 -44.6353 -12.6574 -17.5331 -10.8122 5.1257 48.0264 15.4630 -4.0972 -1.2341 -0.0000 0.0000 -0.0000 34.3930 5.0865 3.4711 42.1707 3.0303 -19.6230 9.6322 -0.7217 25.1027 -13.3845 0.2062 -0.6426 0.0000 0.0000 0.0000 0.5303 1.5734 1.2788 -0.5622 -1.1419 5.5301 3.8147 -0.1872 -4.5991 0.0000 0.0000 -0.0000
45.5386 39.7997 80.6104 -179.3870 -0.8359 177.3970 0.0000 0.0000 0.0000 0.8130 -2.0234 1.7142 -2.2099 -8.7039 4.4752 -0.8041 0.0338 -3.6674 0.0000 -0.0000 -0.0000 0.0000 0.0000 0.0000 -1.4040 0.1046 1.4637 4.3912 -0.6834 0.5417 -0.0000 0.0000 -0.0000 1.3363 5.9240 0.2516 -0.0000 0.0000 -0.0000 -34.1185 -2.2463 2.3089 -44.9172 -12.8057 -17.4484 -10.7983 5.1321 47.8112 15.3866 -4.0979 -1.2278 -0.0000 0.0000 -0.0000 34.2284 5.0507 3.4424 42.5253 3.4423 -20.5121 9.1755 -1.1887 26.0689 -13.2681 0.5540 -0.6743 0.0000 0.0000 0.0000 0.7496 1.8846 1.0918 -0.9165 -1.3962 5.6399 4.0583 -0.2028 -4.6444 0.0000 0.0000 -0.0000
45.4886 39.7992 80.6111 -179.3200 -0.8852 177.5020 0.0000 0.0000 0.0000 0.8282 -1.9833 1.6624 -2.2462 -8.8153 4.3578 -0.7373 0.0293 -3.5883 0.0000 -0.0000 -0.0000 0.0000 0.0000 0.0000 -1.3775 0.0807 1.0641 4.4155 -0.7275 1.0104 -0.0000 0.0000 -0.0000 0.0166 5.2694 -0.9258 -0.0000 0.0000 -0.0000 -34.1423 -2.2663 2.3183 -45.0242 -12.9842 -17.4686 -10.7310 5.1333 47.7973 15.1845 -4.2392 -1.2284 -0.0000 0.0000 -0.0000 34.0492 5.0105 3.4108 42.6520 3.4895 -20.1838 9.3576 -0.9760 25.5120 -13.0409 0.7118 -0.6792 0.0000 0.0000 0.0000 0.8196 2.0156 0.9510 -1.1017 -1.5526 5.6890 4.2121 -0.2127 -4.6558 0.0000 0.0000 -0.0000
